# xmcd CD database file
#
# Track frame offsets:
#	150
#	4008
#	11061
#	19839
#	21930
#	35160
#	45420
#	56970
#	62013
#	76236
#	85446
#	98565
#	112569
#	125253
#	140379
#	152634
#	165207
#	171045
#	193245
#	213312
#	224589
#	232707
#	243681
#	251445
#	260139
#	265953
#	274914
#	281484
#	290085
#	296229
#	302208
#	313227
#
# Disc length: 4334 seconds
#
# Revision: 0
# Processed by: cddbd v1.5.1PL0 Copyright (c) Steve Scherf et al.
# Submitted via: CDex 1.51
#
DISCID=d410ec20
DTITLE=Sven Grünberg - Wikmani  poisid
DYEAR=1900
DGENRE=New Age
TTITLE0=Avateema
TTITLE1=Tunnen
TTITLE2=Meresõit
TTITLE3=Vaade
TTITLE4=Kohtumine
TTITLE5=Arm
TTITLE6=Lahkub
TTITLE7=Rootsi tüdruk
TTITLE8=Finaal
TTITLE9=Liisi
TTITLE10=Vaakum
TTITLE11=Ka Siber
TTITLE12=Lahkumine siit
TTITLE13=Pildid
TTITLE14=Mets
TTITLE15=Oli
TTITLE16=Head ööd
TTITLE17=Vaalad
TTITLE18=Tuleviku linn
TTITLE19=Tiivul
TTITLE20=Harfiga
TTITLE21=Laskumine
TTITLE22=Flöödiga
TTITLE23=Hing
TTITLE24=Lapsele
TTITLE25=Kandlele
TTITLE26=Meenutus
TTITLE27=Bibol
TTITLE28=Oo-Um
TTITLE29=Lunastus
TTITLE30=Lootos
TTITLE31=ERO Hümn
EXTD=
EXTT0=
EXTT1=
EXTT2=
EXTT3=
EXTT4=
EXTT5=
EXTT6=
EXTT7=
EXTT8=
EXTT9=
EXTT10=
EXTT11=
EXTT12=
EXTT13=
EXTT14=
EXTT15=
EXTT16=
EXTT17=
EXTT18=
EXTT19=
EXTT20=
EXTT21=
EXTT22=
EXTT23=
EXTT24=
EXTT25=
EXTT26=
EXTT27=
EXTT28=
EXTT29=
EXTT30=
EXTT31=
PLAYORDER=
